# File created by Blade
# Date/Time:  Thu Jan 22 19:34:22 2015
#---------------------------------------------------------
:version 1.10
:name HOM
:units
  mass 1.0
  length 1.000000
  angle deg
:documentation
     Acclaim Skeleton File
:root
   axis xyz
   order TX TY TZ RX RY RZ
   position 0.000000 0.000000 0.000000
   orientation 0 0 0
:bonedata
   begin
      id 1
      name RightUpLeg_dum
      direction -1.000000 0.000000 0.000000
      length 4.478084
      axis 0.0 0.0 0.0 xyz
   end
   begin
      id 2
      name LeftUpLeg_dum
      direction 1.000000 0.000000 0.000000
      length 4.478084
      axis 0.0 0.0 0.0 xyz
   end
   begin
      id 3
      name Spine_dum
      direction 0.000000 1.000000 0.000000
      length 6.068208
      axis 0.0 0.0 0.0 xyz
   end
   begin
      id 4
      name RightUpLeg
      direction 0.000000 -1.000000 0.000000
      length 16.405774
      axis 0.0 0.0 0.0 xyz
      dof rx ry rz
   end
   begin
      id 5
      name RightLeg
      direction 0.000000 -1.000000 0.000000
      length 14.644143
      axis 0.0 0.0 0.0 xyz
      dof rx ry rz
   end
   begin
      id 6
      name RightFoot
      direction 0.000000 -0.258819 0.965926
      length 5.806150
      axis 15.0 0.0 0.0 xyz
      dof rx ry rz
   end
   begin
      id 7
      name RightToeBase
      direction 0.000000 0.000000 1.000000
      length 2.952750
      axis 0.0 0.0 0.0 xyz
      dof rx ry rz
   end
   begin
      id 8
      name LeftUpLeg
      direction 0.000000 -1.000000 0.000000
      length 16.405774
      axis 0.0 0.0 0.0 xyz
      dof rx ry rz
   end
   begin
      id 9
      name LeftLeg
      direction 0.000000 -1.000000 0.000000
      length 14.644143
      axis 0.0 0.0 0.0 xyz
      dof rx ry rz
   end
   begin
      id 10
      name LeftFoot
      direction 0.000000 -0.258819 0.965926
      length 5.806150
      axis 15.0 0.0 0.0 xyz
      dof rx ry rz
   end
   begin
      id 11
      name LeftToeBase
      direction 0.000000 0.000000 1.000000
      length 2.952750
      axis 0.0 0.0 0.0 xyz
      dof rx ry rz
   end
   begin
      id 12
      name Spine
      direction 0.000000 1.000000 0.000000
      length 0.000000
      axis 0.0 0.0 0.0 xyz
      dof rx ry rz
   end
   begin
      id 13
      name Spine_dum1
      direction 0.000000 1.000000 0.000000
      length 10.013923
      axis 0.0 0.0 0.0 xyz
   end
   begin
      id 14
      name Spine_dum2
      direction 0.000000 1.000000 0.000000
      length 10.013923
      axis 0.0 0.0 0.0 xyz
   end
   begin
      id 15
      name Spine_dum3
      direction 0.000000 1.000000 0.000000
      length 15.777476
      axis 0.0 0.0 0.0 xyz
   end
   begin
      id 16
      name RightShoulder
      direction -1.000000 0.000000 0.000000
      length 7.190220
      axis 0.0 0.0 90.0 xyz
      dof rx ry rz
   end
   begin
      id 17
      name RightArm
      direction -1.000000 0.000000 0.000000
      length 10.177469
      axis 0.0 0.0 90.0 xyz
      dof rx ry rz
   end
   begin
      id 18
      name RightForeArm
      direction -1.000000 0.000000 0.000000
      length 8.392114
      axis 0.0 0.0 90.0 xyz
      dof ry rz rx
   end
   begin
      id 19
      name RightHand
      direction -1.000000 0.000000 0.000000
      length 0.000000
      axis 0.0 0.0 90.0 xyz
      dof rx ry rz
   end
   begin
      id 20
      name RightHand_dum1
      direction -1.000000 0.000000 0.000000
      length 3.937000
      axis 0.0 0.0 90.0 xyz
   end
   begin
      id 21
      name RightHand_dum2
      direction 0.000000 0.000000 0.000000
      length 0.000000
      axis 0.0 0.0 90.0 xyz
   end
   begin
      id 22
      name RightHandThumb1
      direction 0.000000 0.000000 1.000000
      length 3.937000
      axis 0.0 0.0 90.0 xyz
      dof rx rz ry
   end
   begin
      id 23
      name LeftShoulder
      direction 1.000000 0.000000 0.000000
      length 7.190220
      axis 0.0 0.0 -90.0 xyz
      dof rx ry rz
   end
   begin
      id 24
      name LeftArm
      direction 1.000000 0.000000 0.000000
      length 10.177469
      axis 0.0 0.0 -90.0 xyz
      dof rx ry rz
   end
   begin
      id 25
      name LeftForeArm
      direction 1.000000 0.000000 0.000000
      length 8.392114
      axis 0.0 0.0 -90.0 xyz
      dof ry rz rx
   end
   begin
      id 26
      name LeftHand
      direction 1.000000 0.000000 0.000000
      length 0.000000
      axis 0.0 0.0 -90.0 xyz
      dof rx ry rz
   end
   begin
      id 27
      name LeftHand_dum1
      direction 1.000000 0.000000 0.000000
      length 3.937000
      axis 0.0 0.0 -90.0 xyz
   end
   begin
      id 28
      name LeftHand_dum2
      direction 0.000000 0.000000 0.000000
      length 0.000000
      axis 0.0 0.0 -90.0 xyz
   end
   begin
      id 29
      name LeftHandThumb1
      direction 0.000000 0.000000 1.000000
      length 3.937000
      axis 0.0 0.0 -90.0 xyz
      dof rx rz ry
   end
   begin
      id 30
      name Head
      direction 0.000000 1.000000 0.000000
      length 4.527550
      axis 0.0 0.0 0.0 xyz
      dof rx ry rz
   end
:hierarchy
   begin
      root RightUpLeg_dum LeftUpLeg_dum Spine_dum
      RightUpLeg_dum RightUpLeg
      LeftUpLeg_dum LeftUpLeg
      Spine_dum Spine
      RightUpLeg RightLeg
      RightLeg RightFoot
      RightFoot RightToeBase
      LeftUpLeg LeftLeg
      LeftLeg LeftFoot
      LeftFoot LeftToeBase
      Spine Spine_dum1 Spine_dum2 Spine_dum3
      Spine_dum1 RightShoulder
      Spine_dum2 LeftShoulder
      Spine_dum3 Head
      RightShoulder RightArm
      RightArm RightForeArm
      RightForeArm RightHand
      RightHand RightHand_dum1 RightHand_dum2
      RightHand_dum2 RightHandThumb1
      LeftShoulder LeftArm
      LeftArm LeftForeArm
      LeftForeArm LeftHand
      LeftHand LeftHand_dum1 LeftHand_dum2
      LeftHand_dum2 LeftHandThumb1
   end

# File created by Blade
# Date/Time:  Thu Jan 22 19:34:15 2015
# Frame Rate: 120.000 fps
#------------------------------------------------------
:FULLY-SPECIFIED
:DEGREES
620
root -13.548954 15.124198 -9.549196 30.722563 -30.792112 22.320876
RightUpLeg -129.518428 -21.633261 -4.180281
RightLeg 133.350188 -0.000000 -0.000000
RightFoot -46.427515 -6.266764 6.966703
RightToeBase 1.428861 -0.000000 -0.000000
LeftUpLeg -15.202415 40.702093 27.196184
LeftLeg 4.949396 -0.000000 -0.000000
LeftFoot -6.040575 11.087937 -53.635865
LeftToeBase 21.012590 -0.000000 -0.000000
Spine 16.790291 5.598776 25.422654
RightShoulder -4.650747 -1.683798 -12.242120
RightArm 24.856063 15.124149 73.012025
RightForeArm -7.567587 -0.000000 26.964407
RightHand 25.224949 0.000000 -79.452534
RightHandThumb1 -24.326973 -0.000000 -32.862282
LeftShoulder -25.347854 7.102353 30.673633
LeftArm 7.835254 3.952970 -27.983925
LeftForeArm 13.590114 0.000000 24.424016
LeftHand 1.376070 -0.000000 -15.943278
LeftHandThumb1 -26.253704 0.000000 33.147579
Head -39.964196 22.498859 -19.458535
621
root -13.561974 15.119737 -9.560666 30.690283 -30.828177 22.301117
RightUpLeg -129.536922 -21.571008 -4.086125
RightLeg 133.360990 -0.000000 -0.000000
RightFoot -46.408970 -6.277066 6.865492
RightToeBase 1.403287 -0.000000 -0.000000
LeftUpLeg -15.129493 40.683841 27.259611
LeftLeg 4.947372 -0.000000 -0.000000
LeftFoot -6.052126 11.133083 -53.556218
LeftToeBase 20.997807 -0.000000 -0.000000
Spine 16.899580 5.699879 25.599879
RightShoulder -4.628144 -1.570302 -12.085401
RightArm 24.743587 15.745693 73.193512
RightForeArm -7.916173 -0.000000 27.353467
RightHand 25.415968 -0.000000 -80.018504
RightHandThumb1 -24.326973 -0.000000 -32.862282
LeftShoulder -25.450974 7.004879 30.909841
LeftArm 7.641886 1.956007 -27.572035
LeftForeArm 13.490263 -0.000000 23.182084
LeftHand 1.136801 -0.000000 -15.539307
LeftHandThumb1 -26.253704 0.000000 33.147579
Head -39.864069 22.589296 -19.033590
622
root -13.573193 15.113611 -9.570479 30.643180 -30.875881 22.283171
RightUpLeg -129.541882 -21.493059 -4.024775
RightLeg 133.376778 -0.000000 -0.000000
RightFoot -46.384283 -6.253490 6.817608
RightToeBase 1.396829 -0.000000 -0.000000
LeftUpLeg -15.048164 40.727362 27.294427
LeftLeg 4.918683 -0.000000 -0.000000
LeftFoot -6.092104 11.204828 -53.437093
LeftToeBase 21.032393 -0.000000 -0.000000
Spine 17.009924 5.798546 25.764297
RightShoulder -4.603349 -1.333582 -11.917926
RightArm 24.576071 16.261802 73.241698
RightForeArm -8.301143 0.000000 27.557438
RightHand 25.566424 -0.000000 -80.948151
RightHandThumb1 -24.326973 -0.000000 -32.862282
LeftShoulder -25.542108 6.947735 31.120913
LeftArm 7.463558 0.037338 -27.106023
LeftForeArm 13.406773 -0.000000 22.060251
LeftHand 0.881846 -0.000000 -15.056213
LeftHandThumb1 -26.253704 0.000000 33.147579
Head -39.750400 22.766448 -18.654570
623
root -13.584212 15.108689 -9.579557 30.603402 -30.914787 22.258566
RightUpLeg -129.541782 -21.425736 -3.949839
RightLeg 133.393530 -0.000000 -0.000000
RightFoot -46.361128 -6.239244 6.740467
RightToeBase 1.395197 -0.000000 -0.000000
LeftUpLeg -14.963252 40.715995 27.354896
LeftLeg 4.905017 -0.000000 -0.000000
LeftFoot -6.138587 11.315918 -53.233144
LeftToeBase 21.066680 -0.000000 -0.000000
Spine 17.099547 5.889765 25.929694
RightShoulder -4.601822 -1.144001 -11.757579
RightArm 24.437684 16.731639 73.322471
RightForeArm -8.511374 -0.000000 27.832047
RightHand 25.688546 -0.000000 -81.633320
RightHandThumb1 -24.326973 -0.000000 -32.862282
LeftShoulder -25.621750 6.868510 31.368071
LeftArm 7.266741 -1.968175 -26.674989
LeftForeArm 13.552463 -0.000000 21.042032
LeftHand 0.633848 0.000000 -14.448016
LeftHandThumb1 -26.253704 0.000000 33.147579
Head -39.611022 22.915680 -18.217428
624
root -13.596285 15.104805 -9.590087 30.591052 -30.937568 22.186714
RightUpLeg -129.522772 -21.341852 -3.838523
RightLeg 133.395719 -0.000000 -0.000000
RightFoot -46.351796 -6.266762 6.647845
RightToeBase 1.351146 -0.000000 -0.000000
LeftUpLeg -14.887687 40.676908 27.468975
LeftLeg 4.921223 -0.000000 -0.000000
LeftFoot -6.254694 11.434363 -53.098974
LeftToeBase 21.070182 -0.000000 -0.000000
Spine 17.186424 5.966492 26.139640
RightShoulder -4.593134 -0.912662 -11.660590
RightArm 24.267072 17.233928 73.465244
RightForeArm -8.848728 -0.000000 28.060117
RightHand 25.911789 0.000000 -82.203977
RightHandThumb1 -24.326973 -0.000000 -32.862282
LeftShoulder -25.730888 6.752230 31.578699
LeftArm 7.058134 -3.797635 -26.143740
LeftForeArm 13.594657 0.000000 20.156920
LeftHand 0.297717 0.000000 -13.806093
LeftHandThumb1 -26.253704 0.000000 33.147579
Head -39.458707 23.100139 -17.827841
